# xmcd CD database file generated by Grip 2.92
# 
# Track frame offsets:
#       180
#       15016
#       28664
#       40011
#       50847
#       61786
#       80549
#       98682
#       114583
#       128501
#       143550
#       162669
#       175769
#       187768
# 
# Disc length: 2829 seconds
# 
# Revision: 3
# Processed by: cddbd v1.4PL0 Copyright (c) Steve Scherf et al.
# Submitted via: Grip 2.92
# 
DISCID=a30b0b0e
DTITLE=Sharon Lane and Danny Sauers - Gig's Up
DYEAR=1900
DGENRE=
TTITLE0=Taxi
TTITLE1=Waitress With A Smile
TTITLE2=Gone Friend
TTITLE3=Sail On
TTITLE4=Back Alley Serenade
TTITLE5=New Mexico Ride
TTITLE6=Promises
TTITLE7=Bus Station
TTITLE8=Whatcha Doing Round Here
TTITLE9=Blues For Guy
TTITLE10=Hurts The Same
TTITLE11=Courtship Of Two Religious People
TTITLE12=Rattlesnake
TTITLE13=Gigs Up
EXTD=
EXTT0=
EXTT1=
EXTT2=
EXTT3=
EXTT4=
EXTT5=
EXTT6=
EXTT7=
EXTT8=
EXTT9=
EXTT10=
EXTT11=
EXTT12=
EXTT13=
PLAYORDER=
